<svg xmlns="http://www.w3.org/2000/svg" xmlns:xlink="http://www.w3.org/1999/xlink" viewBox="0 0 140.74 160.76"><defs><style>.cls-1{isolation:isolate;}.cls-2{fill:#00e599;}.cls-3{fill:#00af92;}.cls-4{fill:#f8d89b;}.cls-5{fill:#f2c66f;}.cls-6,.cls-7{mix-blend-mode:multiply;}.cls-6{fill:url(#linear-gradient);}.cls-7{fill:url(#linear-gradient-2);}</style><linearGradient id="linear-gradient" x1="75.95" y1="107.98" x2="60.65" y2="84.28" gradientTransform="translate(-73.14 11) rotate(-33.4)" gradientUnits="userSpaceOnUse"><stop offset="0" stop-color="#e5e5e5"/><stop offset="0.02" stop-color="#e6e6e6"/><stop offset="0.59" stop-color="#f8f8f8"/><stop offset="1" stop-color="#fff"/></linearGradient><linearGradient id="linear-gradient-2" x1="32.86" y1="80.28" x2="56.28" y2="105.49" gradientTransform="translate(-73.14 11) rotate(-33.4)" gradientUnits="userSpaceOnUse"><stop offset="0" stop-color="#fff"/><stop offset="0.26" stop-color="#fafafa"/><stop offset="0.56" stop-color="#ececec"/><stop offset="0.89" stop-color="#d5d5d5"/><stop offset="1" stop-color="#cbcbcb"/></linearGradient></defs><g class="cls-1"><g id="Layer_1" data-name="Layer 1"><polygon class="cls-2" points="32.24 61.76 32.24 142.06 84.44 160.76 84.44 79.76 140.74 59.06 89.64 40.76 32.24 61.76"/><polygon class="cls-3" points="88.64 82.76 88.64 126.06 140.74 144.66 140.74 63.46 88.64 82.76"/><path class="cls-4" d="M82.93,46.58,54,35.13l-.88,31.14L19.73,69.13,52,104.48l61.07-40.27a7.6,7.6,0,0,0,2.74-9.48L98.7,17.06Z" transform="translate(-19.73 -17.06)"/><polygon class="cls-5" points="32.26 87.42 0 52.07 33.35 49.2 32.26 87.42"/><polygon class="cls-5" points="63.2 29.52 34.23 18.07 32.26 87.42 63.2 29.52"/><polygon class="cls-6" points="63.2 29.52 34.23 18.07 32.26 87.42 63.2 29.52"/><polygon class="cls-7" points="32.26 87.42 0 52.07 33.35 49.2 32.26 87.42"/></g></g></svg>