<?xml version="1.0" standalone="no"?>
<!DOCTYPE svg PUBLIC "-//W3C//DTD SVG 20010904//EN"
 "http://www.w3.org/TR/2001/REC-SVG-20010904/DTD/svg10.dtd">
<svg version="1.0" xmlns="http://www.w3.org/2000/svg"
 width="671.000000pt" height="671.000000pt" viewBox="0 0 671.000000 671.000000"
 preserveAspectRatio="xMidYMid meet">
<metadata>
Created by potrace 1.14, written by Peter Selinger 2001-2017
</metadata>
<g transform="translate(0.000000,671.000000) scale(0.100000,-0.100000)"
fill="#000000" stroke="none">
<path d="M3686 6656 c-14 -24 -26 -47 -26 -49 0 -3 -17 -36 -38 -74 -21 -37
-59 -106 -84 -153 -25 -47 -120 -224 -211 -395 -91 -170 -188 -353 -215 -405
-28 -52 -57 -96 -64 -98 -7 -1 -278 103 -603 232 -324 128 -592 232 -594 230
-3 -2 -6 -48 -7 -102 -1 -53 -5 -185 -8 -292 -4 -107 -9 -271 -11 -365 -13
-467 -15 -528 -17 -531 -3 -2 -101 -12 -203 -19 -33 -3 -80 -7 -105 -10 -25
-2 -76 -7 -115 -10 -67 -5 -139 -11 -235 -20 -25 -2 -81 -7 -125 -10 -44 -4
-96 -8 -115 -10 -19 -2 -71 -7 -115 -10 -44 -4 -96 -8 -115 -11 -37 -4 -199
-17 -237 -18 -13 -1 -23 -2 -23 -3 0 -3 126 -141 315 -348 51 -55 103 -112
116 -126 13 -15 58 -64 99 -110 41 -45 90 -99 109 -118 18 -20 64 -70 101
-111 37 -41 79 -87 91 -101 13 -14 65 -70 114 -124 50 -55 110 -121 135 -148
25 -28 54 -59 65 -71 11 -12 61 -66 110 -121 l90 -101 0 -1137 0 -1136 60 -22
c33 -11 69 -25 80 -30 11 -4 92 -34 180 -65 224 -79 230 -81 810 -289 286
-103 588 -211 670 -240 83 -29 201 -71 263 -93 l112 -41 0 1687 0 1688 173 63
c94 35 249 92 342 126 94 35 265 98 380 140 116 42 233 85 260 96 28 10 131
48 230 85 99 36 212 77 250 92 39 14 75 27 80 28 25 6 611 226 617 232 4 4
-86 40 -200 81 -217 77 -512 182 -647 231 -44 16 -138 50 -210 75 -71 25 -161
57 -200 71 -152 55 -173 63 -255 92 -155 55 -315 114 -317 116 -1 1 1 26 6 55
4 29 4 72 0 97 -7 37 -112 276 -317 724 -16 36 -40 88 -52 115 -13 28 -36 79
-52 115 -17 36 -40 88 -53 115 -12 28 -34 75 -47 105 -14 30 -67 147 -118 260
-51 113 -93 206 -95 208 -1 2 -14 -17 -29 -42z"/>
<path d="M6270 4053 c-82 -31 -635 -236 -735 -273 -71 -26 -193 -71 -270 -99
-77 -28 -156 -58 -175 -66 -19 -8 -141 -53 -270 -100 -129 -47 -242 -89 -250
-92 -8 -4 -17 -7 -20 -7 -9 -2 -104 -38 -135 -51 -16 -7 -57 -22 -90 -33 -33
-12 -94 -34 -135 -50 l-75 -29 0 -903 0 -902 35 -13 c36 -14 205 -75 345 -125
44 -15 118 -42 165 -58 47 -17 157 -56 245 -88 88 -31 183 -65 210 -75 65 -23
269 -96 465 -166 280 -99 313 -111 508 -181 106 -38 194 -66 196 -63 4 5 6
3382 2 3380 0 0 -8 -3 -16 -6z"/>
</g>
</svg>
